<mxfile host="app.diagrams.net" modified="2023-11-04T09:11:13.751Z" agent="Mozilla/5.0 (Windows NT 10.0; Win64; x64) AppleWebKit/537.36 (KHTML, like Gecko) Chrome/119.0.0.0 Safari/537.36" version="22.0.8" etag="ZG2ln7QXEo4b3_yqNumn" type="github">
  <diagram name="Page-1" id="Po8OtPxsu1rjnz3kygYt">
    <mxGraphModel>
      <root>
        <mxCell id="0" />
        <mxCell id="1" parent="0" />
      </root>
    </mxGraphModel>
  </diagram>
</mxfile>
